{
    "accessors": {
        "accessor_16": {
            "bufferView": "bufferView_22",
            "byteOffset": 0,
            "byteStride": 2,
            "componentType": 5123,
            "count": 72,
            "max": [
                7.0
            ],
            "min": [
                0.0
            ],
            "type": "SCALAR"
        },
        "accessor_18": {
            "bufferView": "bufferView_23",
            "byteOffset": 0,
            "byteStride": 12,
            "componentType": 5126,
            "count": 16,
            "max": [
                249778.0,
                2302230.0,
                266.47802734375
            ],
            "min": [
                249385.0,
                2302060.0,
                265.7190246582031
            ],
            "type": "VEC3"
        },
        "accessor_20": {
            "bufferView": "bufferView_23",
            "byteOffset": 192,
            "byteStride": 12,
            "componentType": 5126,
            "count": 16,
            "max": [
                0.03171100094914436,
                0.08283999562263489,
                0.999754011631012
            ],
            "min": [
                -0.03253709897398949,
                -0.08429639786481857,
                -0.9997559785842896
            ],
            "type": "VEC3"
        }
    },
    "animations": {},
    "asset": {
        "generator": "collada2gltf@GITDIR-NOTFOUND",
        "premultipliedAlpha": true,
        "profile": {
            "api": "WebGL",
            "version": "1.0.2"
        },
        "version": "1.0.1"
    },
    "bufferViews": {
        "bufferView_22": {
            "buffer": "ExportModel_0",
            "byteLength": 144,
            "byteOffset": 0,
            "target": 34963
        },
        "bufferView_23": {
            "buffer": "ExportModel_0",
            "byteLength": 384,
            "byteOffset": 144,
            "target": 34962
        }
    },
    "buffers": {
        "ExportModel_0": {
            "byteLength": 528,
            "type": "arraybuffer",
            "uri": "data:application/octet-stream;base64,"
        }
    },
    "materials": {
        "material_effect": {
            "name": "material",
            "technique": "technique0",
            "values": {
                "ambient": [
                    1.0,
                    1.0,
                    1.0,
                    1.0
                ],
                "diffuse": [
                    1.0,
                    1.0,
                    1.0,
                    1.0
                ],
                "emission": [
                    0.0,
                    0.0,
                    0.0,
                    1.0
                ],
                "shininess": 1.0,
                "specular": [
                    0.0,
                    0.0,
                    0.0,
                    0.0
                ]
            }
        }
    },
    "meshes": {
        "geometry": {
            "name": "geometry",
            "primitives": [
                {
                    "attributes": {
                        "NORMAL": "accessor_20",
                        "POSITION": "accessor_18"
                    },
                    "indices": "accessor_16",
                    "material": "material_effect",
                    "mode": 4
                }
            ]
        }
    },
    "nodes": {
        "LOD": {
            "children": [
                "matrixTransform"
            ],
            "name": "LOD"
        },
        "group": {
            "children": [
                "LOD"
            ],
            "name": "group"
        },
        "matrixTransform": {
            "children": [
                "matrixTransform_1"
            ],
            "name": "matrixTransform"
        },
        "matrixTransform_1": {
            "children": [],
            "matrix": [
                1.0,
                0.0,
                0.0,
                0.0,
                0.0,
                1.0,
                0.0,
                0.0,
                0.0,
                0.0,
                1.0,
                0.0,
                -249582.0,
                -2302140.0,
                0.0,
                1.0
            ],
            "meshes": [
                "geometry"
            ],
            "name": "matrixTransform_1"
        },
        "node_5": {
            "children": [
                "sceneRoot"
            ],
            "matrix": [
                1.0,
                0.0,
                0.0,
                0.0,
                0.0,
                0.0,
                -1.0,
                0.0,
                0.0,
                1.0,
                0.0,
                0.0,
                0.0,
                0.0,
                0.0,
                1.0
            ],
            "name": "Y_UP_Transform"
        },
        "sceneRoot": {
            "children": [
                "group"
            ],
            "name": "sceneRoot"
        }
    },
    "programs": {
        "program_0": {
            "attributes": [
                "a_normal",
                "a_position"
            ],
            "fragmentShader": "ExportModel_00FS",
            "vertexShader": "ExportModel_00VS"
        }
    },
    "scene": "defaultScene",
    "scenes": {
        "defaultScene": {
            "nodes": [
                "node_5"
            ]
        }
    },
    "shaders": {
        "ExportModel_00FS": {
            "type": 35632,
            "uri": "data:text/plain;base64,"
        },
        "ExportModel_00VS": {
            "type": 35633,
            "uri": "data:text/plain;base64,"
        }
    },
    "skins": {},
    "techniques": {
        "technique0": {
            "attributes": {
                "a_normal": "normal",
                "a_position": "position"
            },
            "parameters": {
                "ambient": {
                    "type": 35666
                },
                "diffuse": {
                    "type": 35666
                },
                "emission": {
                    "type": 35666
                },
                "modelViewMatrix": {
                    "semantic": "MODELVIEW",
                    "type": 35676
                },
                "normal": {
                    "semantic": "NORMAL",
                    "type": 35665
                },
                "normalMatrix": {
                    "semantic": "MODELVIEWINVERSETRANSPOSE",
                    "type": 35675
                },
                "position": {
                    "semantic": "POSITION",
                    "type": 35665
                },
                "projectionMatrix": {
                    "semantic": "PROJECTION",
                    "type": 35676
                },
                "shininess": {
                    "type": 5126
                },
                "specular": {
                    "type": 35666
                }
            },
            "program": "program_0",
            "states": {
                "enable": [
                    2929,
                    2884
                ]
            },
            "uniforms": {
                "u_ambient": "ambient",
                "u_diffuse": "diffuse",
                "u_emission": "emission",
                "u_modelViewMatrix": "modelViewMatrix",
                "u_normalMatrix": "normalMatrix",
                "u_projectionMatrix": "projectionMatrix",
                "u_shininess": "shininess",
                "u_specular": "specular"
            }
        }
    }
}